<svg xmlns="http://www.w3.org/2000/svg" viewBox="0 0 512 512">
  <!-- Docker whale body -->
  <rect x="120" y="260" width="260" height="80" rx="20" fill="#2496ED"/>
  <path d="M380 300c20 0 40-10 48-26-10-6-22-10-34-10-10-20-34-26-52-16-6-16-22-26-40-26H120c-10 0-20 8-20 18v44c0 30 26 56 60 56h160c26 0 46-16 60-40z"
        fill="#2496ED"/>

  <!-- Containers -->
  <rect x="150" y="220" width="40" height="30" fill="#2496ED"/>
  <rect x="200" y="220" width="40" height="30" fill="#2496ED"/>
  <rect x="250" y="220" width="40" height="30" fill="#2496ED"/>
  <rect x="180" y="180" width="40" height="30" fill="#2496ED"/>
  <rect x="230" y="180" width="40" height="30" fill="#2496ED"/>

  <!-- Docker text -->
  <text
    x="150"
    y="420"
    font-size="72"
    font-family="Arial, Helvetica, sans-serif"
    fill="#2496ED"
    font-weight="700"
  >
    Docker
  </text>
</svg>
