<svg xmlns="http://www.w3.org/2000/svg" viewBox="0 0 512 512">
  <path
    d="M355 108c-12-18-42-44-77-48-46-6-96 14-123 46-31 36-33 88-6 130 22 35 63 61 101 63 38 2 64-14 76-36 12-22 10-44-4-60-14-16-36-20-54-14 10 4 24 12 26 30 2 16-12 34-36 36-30 4-62-20-72-48-10-30 2-68 34-90 30-20 70-22 102-6 26 14 44 38 48 48l-15-51z"
    fill="#00758F"
  />
  <text x="80" y="430" font-size="110" font-family="Arial, Helvetica, sans-serif" fill="#F29111" font-weight="600">
    My
  </text>
  <text x="190" y="430" font-size="110" font-family="Arial, Helvetica, sans-serif" fill="#00758F" font-weight="600">
    SQL
  </text>
</svg>
